<?xml version="1.0" encoding="utf-8"?>
<!-- Generator: Adobe Illustrator 22.0.1, SVG Export Plug-In . SVG Version: 6.00 Build 0)  -->
<svg version="1.1" id="Layer_1" xmlns="http://www.w3.org/2000/svg" xmlns:xlink="http://www.w3.org/1999/xlink" x="0px" y="0px"
	 viewBox="0 0 39.9 33.6" style="enable-background:new 0 0 39.9 33.6;" xml:space="preserve">
<path id="Monitor_Icon" d="M23.5,27.3H21v4.2h7.3c0.3,0,0.6,0.1,0.8,0.3c0.2,0.2,0.3,0.4,0.3,0.7c0,0.6-0.5,1.1-1,1.1c0,0,0,0,0,0
	H11.6c-0.6,0-1.1-0.5-1.1-1c0,0,0,0,0,0c0-0.3,0.1-0.5,0.3-0.7c0.2-0.2,0.5-0.3,0.8-0.3h7.3v-4.2H3.2c-0.8,0-1.6-0.3-2.2-0.9
	C0.3,25.8,0,25,0,24.1v-21c0-0.8,0.3-1.6,0.9-2.2C1.5,0.3,2.3,0,3.2,0h33.6c0.8,0,1.6,0.3,2.2,0.9c0.6,0.6,0.9,1.4,0.9,2.2v21
	c0,1.7-1.4,3.2-3.1,3.2c0,0,0,0,0,0H23.5 M37.8,24.1v-21c0-0.3-0.1-0.5-0.3-0.7c-0.2-0.2-0.5-0.3-0.8-0.3H3.2
	c-0.3,0-0.6,0.1-0.8,0.3C2.2,2.6,2.1,2.8,2.1,3.1v21c0,0.6,0.5,1.1,1,1.1c0,0,0,0,0,0h33.6C37.3,25.2,37.8,24.7,37.8,24.1
	C37.8,24.1,37.8,24.1,37.8,24.1L37.8,24.1z"/>
</svg>
